<svg id="Component_2_1" data-name="Component 2 – 1" xmlns="http://www.w3.org/2000/svg" width="88" height="52.254" viewBox="0 0 88 52.254">
  <g id="noun_Football_1209776" transform="translate(37 -11.873)">
    <g id="Group_22" data-name="Group 22">
      <g id="Group_13" data-name="Group 13">
        <g id="Group_1" data-name="Group 1">
          <path id="Path_9" data-name="Path 9" d="M26,40.127a11.8,11.8,0,0,1-3.074-.408A1,1,0,0,1,22.2,38.9a1.037,1.037,0,0,1-.01-.2l-1.03-3.186-3.836.15a1,1,0,0,1-.849-.413,11.709,11.709,0,0,1-2.2-6.105,1,1,0,0,1,.564-.967,1.033,1.033,0,0,1,.2-.07l2.85-1.786-.9-2.766a1,1,0,0,1-.881-1.54,11.818,11.818,0,0,1,6.087-4.778,1,1,0,0,1,1.049.257,1.026,1.026,0,0,1,.1.122l2.67,2.059,2.827-2.225a1,1,0,0,1,1-.207,11.828,11.828,0,0,1,6.063,4.762,1,1,0,0,1-.634,1.52l-.9,2.8,2.917,1.828a1,1,0,0,1,.467.905,11.7,11.7,0,0,1-2.21,6.2,1,1,0,0,1-.849.413l-3.836-.15L29.782,38.8q0,.045-.009.091a.993.993,0,0,1-.7.831A11.775,11.775,0,0,1,26,40.127Zm-1.961-2.2a9.821,9.821,0,0,0,3.922,0l1.213-3.747a1.007,1.007,0,0,1,.99-.691l4.041.158a9.7,9.7,0,0,0,1.484-4.124l-3.059-1.917a1,1,0,0,1-.42-1.155l1.368-4.228h0a9.833,9.833,0,0,0-3.895-2.893l-3.053,2.4a1,1,0,0,1-1.229.006l-3.113-2.4a9.823,9.823,0,0,0-3.716,2.7.945.945,0,0,1,.081.185l1.368,4.228a1,1,0,0,1-.42,1.155l-3.274,2.052a9.7,9.7,0,0,0,1.466,3.988l4.041-.158a1,1,0,0,1,.99.691Z"/>
        </g>
        <g id="Group_2" data-name="Group 2">
          <path id="Path_10" data-name="Path 10" d="M27.692,33.037H24.313a1,1,0,0,1-.916-.6l-1.689-3.869a1,1,0,0,1,.267-1.161l3.379-2.889a1,1,0,0,1,1.3,0l3.379,2.889a1,1,0,0,1,.267,1.161l-1.689,3.869A1,1,0,0,1,27.692,33.037Zm-2.725-2h2.07l1.131-2.59L26,26.6l-2.166,1.852Z"/>
        </g>
        <g id="Group_3" data-name="Group 3">
          <path id="Path_11" data-name="Path 11" d="M36.739,30a1,1,0,0,1-.531-.152l-3.577-2.241a1,1,0,0,1-.42-1.156l1.368-4.228a1.007,1.007,0,0,1,.99-.691l.521.021a1,1,0,0,1,.8.458,11.718,11.718,0,0,1,1.867,6.355c0,.231-.009.461-.021.69a1,1,0,0,1-1,.944Zm-2.386-3.675,1.331.834a9.728,9.728,0,0,0-.733-2.681Z"/>
        </g>
        <g id="Group_4" data-name="Group 4">
          <path id="Path_12" data-name="Path 12" d="M26.014,21.95a1,1,0,0,1-.61-.208l-3.52-2.713a1,1,0,0,1-.318-1.164,1.107,1.107,0,0,1,.624-.621,11.806,11.806,0,0,1,7.64.007,1,1,0,0,1,.295,1.735l-3.492,2.75A.994.994,0,0,1,26.014,21.95Zm-1.29-3.257,1.283.989,1.259-.991A9.715,9.715,0,0,0,24.724,18.693Z"/>
        </g>
        <g id="Group_5" data-name="Group 5">
          <path id="Path_13" data-name="Path 13" d="M28.813,39.754a1,1,0,0,1-.539-.158,1.079,1.079,0,0,1-.468-1.186l1.368-4.228a1.007,1.007,0,0,1,.99-.691l4.593.18a1,1,0,0,1,.771,1.585,11.793,11.793,0,0,1-6.454,4.462A.992.992,0,0,1,28.813,39.754Zm2.03-4.235-.516,1.6a9.815,9.815,0,0,0,2.236-1.528Z"/>
        </g>
        <g id="Group_6" data-name="Group 6">
          <path id="Path_14" data-name="Path 14" d="M23.146,39.746a.834.834,0,0,1-.221-.027,11.794,11.794,0,0,1-6.453-4.462,1,1,0,0,1,.771-1.585l4.593-.18a1,1,0,0,1,.99.691l1.368,4.228a1,1,0,0,1-.419,1.154A1.231,1.231,0,0,1,23.146,39.746Zm-3.71-4.16a9.817,9.817,0,0,0,2.237,1.529l-.517-1.6Z"/>
        </g>
        <g id="Group_7" data-name="Group 7">
          <path id="Path_15" data-name="Path 15" d="M15.307,30.121a1,1,0,0,1-.674-.261,1.134,1.134,0,0,1-.363-.708c-.017-.259-.028-.52-.028-.783a11.722,11.722,0,0,1,1.86-6.346,1,1,0,0,1,.8-.458l.761-.03a1,1,0,0,1,.99.691l1.368,4.228a1,1,0,0,1-.42,1.155l-3.766,2.36A1,1,0,0,1,15.307,30.121Zm1.879-5.941a9.738,9.738,0,0,0-.889,3.141l1.584-.993Z"/>
        </g>
        <g id="Group_8" data-name="Group 8">
          <path id="Path_16" data-name="Path 16" d="M29.382,29.169a1,1,0,0,1-.349-1.937l3.78-1.407a1,1,0,1,1,.7,1.874l-3.78,1.407A.99.99,0,0,1,29.382,29.169Z"/>
        </g>
        <g id="Group_9" data-name="Group 9">
          <path id="Path_17" data-name="Path 17" d="M22.624,29.169a1,1,0,0,1-.368-.071L18.7,27.691a1,1,0,1,1,.736-1.859l3.552,1.407a1,1,0,0,1-.368,1.93Z"/>
        </g>
        <g id="Group_10" data-name="Group 10">
          <path id="Path_18" data-name="Path 18" d="M26,26.28h0a1,1,0,0,1-1-1l.011-4.33a1,1,0,0,1,1-1h0a1,1,0,0,1,1,1L27,25.282A1,1,0,0,1,26,26.28Z"/>
        </g>
        <g id="Group_11" data-name="Group 11">
          <path id="Path_19" data-name="Path 19" d="M21.875,35.49a1,1,0,0,1-.709-1.705L23.6,31.332a1,1,0,1,1,1.418,1.41L22.584,35.2A1,1,0,0,1,21.875,35.49Z"/>
        </g>
        <g id="Group_12" data-name="Group 12">
          <path id="Path_20" data-name="Path 20" d="M30.125,35.49a1,1,0,0,1-.71-.3l-2.433-2.453a1,1,0,0,1,1.42-1.408l2.433,2.453a1,1,0,0,1-.71,1.7Z"/>
        </g>
      </g>
      <g id="Group_14" data-name="Group 14">
        <path id="Path_21" data-name="Path 21" d="M46.54,40.127a1,1,0,0,1-1-1V13.873H6.46V39.127a1,1,0,0,1-2,0V12.873a1,1,0,0,1,1-1H46.54a1,1,0,0,1,1,1V39.127A1,1,0,0,1,46.54,40.127Z"/>
      </g>
      <g id="Group_15" data-name="Group 15">
        <path id="Path_22" data-name="Path 22" d="M7.92,40.127H3a1,1,0,0,1,0-2H7.92a1,1,0,0,1,0,2Z"/>
      </g>
      <g id="Group_16" data-name="Group 16">
        <path id="Path_23" data-name="Path 23" d="M49,40.127H44.08a1,1,0,0,1,0-2H49a1,1,0,0,1,0,2Z"/>
      </g>
      <g id="Group_17" data-name="Group 17">
        <path id="Path_24" data-name="Path 24" d="M39.859,20.553a1,1,0,0,1-.707-1.707l2.681-2.68a1,1,0,0,1,1.414,1.414l-2.681,2.68A1,1,0,0,1,39.859,20.553Z"/>
      </g>
      <g id="Group_18" data-name="Group 18">
        <path id="Path_25" data-name="Path 25" d="M12.14,20.553a1,1,0,0,1-.707-.293l-2.68-2.68a1,1,0,0,1,1.414-1.414l2.68,2.68a1,1,0,0,1-.707,1.707Z"/>
      </g>
      <g id="Group_21" data-name="Group 21">
        <g id="Group_19" data-name="Group 19">
          <path id="Path_26" data-name="Path 26" d="M33.359,16.553a1,1,0,0,1-.707-1.707l2.681-2.68a1,1,0,0,1,1.414,1.414l-2.681,2.68A1,1,0,0,1,33.359,16.553Z"/>
        </g>
        <g id="Group_20" data-name="Group 20">
          <path id="Path_27" data-name="Path 27" d="M18.64,16.553a1,1,0,0,1-.707-.293l-2.68-2.68a1,1,0,0,1,1.414-1.414l2.68,2.68a1,1,0,0,1-.707,1.707Z"/>
        </g>
      </g>
    </g>
  </g>
  <text id="The_Crossbar" data-name="The
Crossbar" transform="translate(0 24.254)" font-size="20" font-family="Lato-Bold, Lato" font-weight="700" letter-spacing="0.063em"><tspan x="0" y="0">The</tspan><tspan x="0" y="24">Crossbar</tspan></text>
</svg>
